<?xml version="1.0" standalone="no"?>
<!DOCTYPE svg PUBLIC "-//W3C//DTD SVG 20010904//EN"
 "http://www.w3.org/TR/2001/REC-SVG-20010904/DTD/svg10.dtd">
<svg version="1.0" xmlns="http://www.w3.org/2000/svg"
 width="700.000000pt" height="700.000000pt" viewBox="0 0 700.000000 700.000000"
 preserveAspectRatio="xMidYMid meet">
<metadata>
Created by potrace 1.11, written by Peter Selinger 2001-2013
</metadata>
<g transform="translate(0.000000,700.000000) scale(0.100000,-0.100000)"
fill="#000000" stroke="none">
<path d="M3365 6994 c-724 -34 -1380 -266 -1950 -689 -794 -589 -1294 -1474
-1396 -2470 -15 -146 -15 -520 0 -670 122 -1215 847 -2264 1936 -2800 503
-247 980 -358 1545 -358 264 0 423 15 656 58 1402 264 2515 1377 2779 2779 43
233 58 392 58 656 0 565 -111 1042 -358 1545 -495 1005 -1439 1712 -2538 1899
-222 38 -531 59 -732 50z m421 -1259 c160 -21 275 -48 431 -100 869 -290 1486
-1096 1531 -2002 24 -478 -81 -902 -320 -1302 -174 -289 -470 -585 -759 -759
-400 -239 -824 -344 -1302 -320 -906 45 -1712 662 -2002 1531 -82 246 -115
451 -115 717 0 363 76 689 234 1004 339 674 975 1129 1721 1230 140 19 437 19
581 1z"/>
<path d="M3375 4460 c-142 -20 -308 -83 -422 -161 -69 -47 -188 -164 -239
-235 -62 -87 -130 -234 -155 -340 -29 -118 -32 -313 -5 -429 83 -368 372 -657
741 -741 117 -27 312 -25 428 4 359 89 630 360 719 719 29 116 31 311 4 428
-83 362 -364 650 -719 735 -95 23 -265 33 -352 20z"/>
</g>
</svg>
